<?xml version="1.0" encoding="UTF-8" standalone="no"?>
<!DOCTYPE svg PUBLIC "-//W3C//DTD SVG 1.1//EN"
 "http://www.w3.org/Graphics/SVG/1.1/DTD/svg11.dtd">
<!-- Generated by graphviz version 9.0.0 (0)
 -->
<!-- Title: Energy_Valorization_Scenario1 Pages: 1 -->
<svg width="864pt" height="343pt"
 viewBox="0.00 0.00 864.00 342.78" xmlns="http://www.w3.org/2000/svg" xmlns:xlink="http://www.w3.org/1999/xlink">
<g id="graph0" class="graph" transform="scale(0.523002 0.523002) rotate(0) translate(4 651.4)">
<title>Energy_Valorization_Scenario1</title>
<polygon fill="white" stroke="none" points="-4,4 -4,-651.4 1648,-651.4 1648,4 -4,4"/>
<text text-anchor="middle" x="822" y="-631.7" font-family="Arial-Bold" font-size="13.00">CONCEPTUAL DIAGRAM FOR ENERGY VALORIZATION (SCENARIO 1): EFB COMBUSTION &amp; EXTRACTION&#45;CONDENSATION CYCLE</text>
<g id="clust1" class="cluster">
<title>cluster_solid_sc1</title>
<polygon fill="none" stroke="none" points="8,-81 8,-560.8 818,-560.8 818,-81 8,-81"/>
<text text-anchor="middle" x="413" y="-545.1" font-family="Arial-Bold" font-size="13.00">CONCEPTUAL DIAGRAM FOR ENERGY VALORIZATION (SCENARIO 1): EFB COMBUSTION &amp; EXTRACTION&#45;CONDENSATION CYCLE</text>
</g>
<g id="clust2" class="cluster">
<title>cluster_liquid_sc1</title>
<polygon fill="none" stroke="none" points="826,-8 826,-560.8 1636,-560.8 1636,-8 826,-8"/>
<text text-anchor="middle" x="1231" y="-545.1" font-family="Arial-Bold" font-size="13.00">CONCEPTUAL DIAGRAM FOR ENERGY VALORIZATION (SCENARIO 1): EFB COMBUSTION &amp; EXTRACTION&#45;CONDENSATION CYCLE</text>
</g>
<!-- mill -->
<g id="node1" class="node">
<title>mill</title>
<polygon fill="#dddddd" stroke="#777777" points="765.2,-623.8 606.8,-623.8 606.8,-587.8 765.2,-587.8 765.2,-623.8"/>
<text text-anchor="middle" x="686" y="-602.2" font-family="Arial-Bold" font-size="12.00" fill="#000000">PALM OIL MILL</text>
</g>
<!-- efb -->
<g id="node2" class="node">
<title>efb</title>
<polygon fill="#e6f2ff" stroke="#2a78d6" points="677.2,-529.2 518.8,-529.2 518.8,-493.2 677.2,-493.2 677.2,-529.2"/>
<text text-anchor="middle" x="598" y="-514.2" font-family="Arial-Bold" font-size="10.00" fill="#000000">EFB</text>
<text text-anchor="middle" x="598" y="-502.2" font-family="Arial-Bold" font-size="10.00" fill="#000000">(Empty Fruit Bunches)</text>
</g>
<!-- mill&#45;&gt;efb -->
<g id="edge21" class="edge">
<title>mill&#45;&gt;efb</title>
<path fill="none" stroke="#555555" d="M669.45,-587.38C656.17,-573.41 637.35,-553.61 622.35,-537.83"/>
<polygon fill="#555555" stroke="#555555" points="624.95,-535.47 615.52,-530.64 619.87,-540.3 624.95,-535.47"/>
</g>
<!-- fiber -->
<g id="node3" class="node">
<title>fiber</title>
<polygon fill="#e6f2ff" stroke="#2a78d6" points="458.2,-456.2 299.8,-456.2 299.8,-420.2 458.2,-420.2 458.2,-456.2"/>
<text text-anchor="middle" x="379" y="-435.2" font-family="Arial-Bold" font-size="10.00" fill="#000000">FIBER</text>
</g>
<!-- mill&#45;&gt;fiber -->
<g id="edge22" class="edge">
<title>mill&#45;&gt;fiber</title>
<path fill="none" stroke="#555555" d="M606.65,-593.75C575.24,-587.18 539.63,-576.86 510,-560.8 465.14,-536.49 423.87,-493.25 400.08,-465.42"/>
<polygon fill="#555555" stroke="#555555" points="402.78,-463.2 393.67,-457.78 397.42,-467.7 402.78,-463.2"/>
</g>
<!-- shell -->
<g id="node4" class="node">
<title>shell</title>
<polygon fill="#e6f2ff" stroke="#2a78d6" points="810.2,-456.2 651.8,-456.2 651.8,-420.2 810.2,-420.2 810.2,-456.2"/>
<text text-anchor="middle" x="731" y="-435.2" font-family="Arial-Bold" font-size="10.00" fill="#000000">SHELL</text>
</g>
<!-- mill&#45;&gt;shell -->
<g id="edge23" class="edge">
<title>mill&#45;&gt;shell</title>
<path fill="none" stroke="#555555" d="M690.73,-587.39C698.5,-558.82 714.01,-501.71 723.35,-467.34"/>
<polygon fill="#555555" stroke="#555555" points="726.62,-468.65 725.87,-458.08 719.87,-466.82 726.62,-468.65"/>
</g>
<!-- pome -->
<g id="node12" class="node">
<title>pome</title>
<polygon fill="#f0f0f0" stroke="#777777" points="992.2,-529.2 833.8,-529.2 833.8,-493.2 992.2,-493.2 992.2,-529.2"/>
<text text-anchor="middle" x="913" y="-514.2" font-family="Arial-Bold" font-size="10.00" fill="#000000">POME</text>
<text text-anchor="middle" x="913" y="-502.2" font-family="Arial-Bold" font-size="10.00" fill="#000000">(Palm Oil Mill Effluent)</text>
</g>
<!-- mill&#45;&gt;pome -->
<g id="edge24" class="edge">
<title>mill&#45;&gt;pome</title>
<path fill="none" stroke="#555555" d="M747.78,-587.36C771.35,-580.04 798.25,-570.89 822,-560.8 839.44,-553.39 858.02,-543.8 873.8,-535.1"/>
<polygon fill="#555555" stroke="#555555" points="875.39,-538.22 882.41,-530.28 871.98,-532.11 875.39,-538.22"/>
</g>
<!-- pre -->
<g id="node5" class="node">
<title>pre</title>
<polygon fill="#f9f9f9" stroke="#777777" points="634.2,-456.2 475.8,-456.2 475.8,-420.2 634.2,-420.2 634.2,-456.2"/>
<text text-anchor="middle" x="555" y="-441.2" font-family="Arial-Bold" font-size="10.00" fill="#000000">MECHANICAL</text>
<text text-anchor="middle" x="555" y="-429.2" font-family="Arial-Bold" font-size="10.00" fill="#000000">PRETREATMENT</text>
</g>
<!-- efb&#45;&gt;pre -->
<g id="edge1" class="edge">
<title>efb&#45;&gt;pre</title>
<path fill="none" stroke="#555555" d="M587.59,-493.01C582.68,-484.9 576.7,-475.04 571.22,-465.98"/>
<polygon fill="#555555" stroke="#555555" points="574.27,-464.26 566.1,-457.52 568.28,-467.89 574.27,-464.26"/>
</g>
<!-- boiler -->
<g id="node6" class="node">
<title>boiler</title>
<polygon fill="#f9f9f9" stroke="#777777" points="634.2,-373.4 475.8,-373.4 475.8,-337.4 634.2,-337.4 634.2,-373.4"/>
<text text-anchor="middle" x="555" y="-358.4" font-family="Arial-Bold" font-size="10.00" fill="#000000">COMBUSTION</text>
<text text-anchor="middle" x="555" y="-346.4" font-family="Arial-Bold" font-size="10.00" fill="#000000">BOILER</text>
</g>
<!-- fiber&#45;&gt;boiler -->
<g id="edge3" class="edge">
<title>fiber&#45;&gt;boiler</title>
<path fill="none" stroke="#555555" d="M416.76,-419.87C443.11,-407.77 478.52,-391.51 506.89,-378.48"/>
<polygon fill="#555555" stroke="#555555" points="508,-381.83 515.63,-374.48 505.08,-375.47 508,-381.83"/>
<text text-anchor="middle" x="498.26" y="-394.1" font-family="Arial" font-size="9.00"> Fuel Input</text>
</g>
<!-- shell&#45;&gt;boiler -->
<g id="edge4" class="edge">
<title>shell&#45;&gt;boiler</title>
<path fill="none" stroke="#555555" d="M693.24,-419.87C666.89,-407.77 631.48,-391.51 603.11,-378.48"/>
<polygon fill="#555555" stroke="#555555" points="604.92,-375.47 594.37,-374.48 602,-381.83 604.92,-375.47"/>
<text text-anchor="middle" x="674.26" y="-394.1" font-family="Arial" font-size="9.00"> Fuel Input</text>
</g>
<!-- pre&#45;&gt;boiler -->
<g id="edge2" class="edge">
<title>pre&#45;&gt;boiler</title>
<path fill="none" stroke="#555555" d="M555,-420.06C555,-409.96 555,-396.9 555,-385.25"/>
<polygon fill="#555555" stroke="#555555" points="558.5,-385.3 555,-375.3 551.5,-385.3 558.5,-385.3"/>
<text text-anchor="middle" x="576.26" y="-394.1" font-family="Arial" font-size="9.00"> Fuel Input</text>
</g>
<!-- turbine -->
<g id="node7" class="node">
<title>turbine</title>
<polygon fill="#2a78d6" stroke="#2a78d6" points="543.77,-290.6 382.23,-290.6 382.23,-254.6 543.77,-254.6 543.77,-290.6"/>
<text text-anchor="middle" x="463" y="-275.6" font-family="Arial-Bold" font-size="10.00" fill="white">EXTRACTION&#45;CONDENSATION</text>
<text text-anchor="middle" x="463" y="-263.6" font-family="Arial-Bold" font-size="10.00" fill="white">STEAM TURBINE</text>
</g>
<!-- boiler&#45;&gt;turbine -->
<g id="edge5" class="edge">
<title>boiler&#45;&gt;turbine</title>
<path fill="none" stroke="#4a90e2" d="M530.81,-337.24C523.46,-331.75 515.48,-325.51 508.47,-319.4 501.06,-312.94 493.39,-305.54 486.51,-298.59"/>
<polygon fill="#4a90e2" stroke="#4a90e2" points="489.4,-296.54 479.92,-291.81 484.38,-301.42 489.4,-296.54"/>
<text text-anchor="middle" x="552.27" y="-311.3" font-family="Arial" font-size="9.00"> High&#45;Pressure Steam</text>
</g>
<!-- elec1 -->
<g id="node8" class="node">
<title>elec1</title>
<polygon fill="#2a78d6" stroke="#2a78d6" points="583.2,-207.8 424.8,-207.8 424.8,-171.8 583.2,-171.8 583.2,-207.8"/>
<text text-anchor="middle" x="504" y="-192.8" font-family="Arial-Bold" font-size="10.00" fill="white">ELECTRICITY</text>
<text text-anchor="middle" x="504" y="-180.8" font-family="Arial-Bold" font-size="10.00" fill="white">GENERATION (ECT)</text>
</g>
<!-- turbine&#45;&gt;elec1 -->
<g id="edge6" class="edge">
<title>turbine&#45;&gt;elec1</title>
<path fill="none" stroke="#555555" d="M471.7,-254.46C477.04,-243.93 484.01,-230.2 490.11,-218.18"/>
<polygon fill="#555555" stroke="#555555" points="493.09,-220.04 494.49,-209.54 486.84,-216.87 493.09,-220.04"/>
</g>
<!-- process -->
<g id="node9" class="node">
<title>process</title>
<polygon fill="#f9f9f9" stroke="#777777" points="231.2,-207.8 72.8,-207.8 72.8,-171.8 231.2,-171.8 231.2,-207.8"/>
<text text-anchor="middle" x="152" y="-192.8" font-family="Arial-Bold" font-size="10.00" fill="#000000">INDUSTRIAL PROCESS</text>
<text text-anchor="middle" x="152" y="-180.8" font-family="Arial-Bold" font-size="10.00" fill="#000000">(Thermal Demand)</text>
</g>
<!-- turbine&#45;&gt;process -->
<g id="edge7" class="edge">
<title>turbine&#45;&gt;process</title>
<path fill="none" stroke="#4a90e2" d="M384.96,-254.14C361.74,-248.75 336.27,-242.63 312.97,-236.6 282.92,-228.83 249.92,-219.56 221.67,-211.41"/>
<polygon fill="#4a90e2" stroke="#4a90e2" points="222.72,-208.07 212.14,-208.65 220.77,-214.8 222.72,-208.07"/>
<text text-anchor="middle" x="346.51" y="-228.5" font-family="Arial" font-size="9.00"> Extracted Steam</text>
</g>
<!-- condenser -->
<g id="node10" class="node">
<title>condenser</title>
<polygon fill="#f9f9f9" stroke="#777777" points="407.2,-207.8 248.8,-207.8 248.8,-171.8 407.2,-171.8 407.2,-207.8"/>
<text text-anchor="middle" x="328" y="-192.8" font-family="Arial-Bold" font-size="10.00" fill="#000000">CONDENSATION</text>
<text text-anchor="middle" x="328" y="-180.8" font-family="Arial-Bold" font-size="10.00" fill="#000000">SYSTEM</text>
</g>
<!-- turbine&#45;&gt;condenser -->
<g id="edge8" class="edge">
<title>turbine&#45;&gt;condenser</title>
<path fill="none" stroke="#4a90e2" d="M433,-254.27C423.38,-248.68 412.7,-242.41 402.97,-236.6 390.79,-229.33 377.57,-221.3 365.67,-214.02"/>
<polygon fill="#4a90e2" stroke="#4a90e2" points="367.68,-211.15 357.33,-208.91 364.03,-217.12 367.68,-211.15"/>
<text text-anchor="middle" x="439.02" y="-228.5" font-family="Arial" font-size="9.00"> Remaining Steam</text>
</g>
<!-- makeup -->
<g id="node11" class="node">
<title>makeup</title>
<polygon fill="#f9f9f9" stroke="#777777" points="407.2,-125 248.8,-125 248.8,-89 407.2,-89 407.2,-125"/>
<text text-anchor="middle" x="328" y="-110" font-family="Arial-Bold" font-size="10.00" fill="#000000">MAKE&#45;UP WATER</text>
<text text-anchor="middle" x="328" y="-98" font-family="Arial-Bold" font-size="10.00" fill="#000000">TREATMENT</text>
</g>
<!-- process&#45;&gt;makeup -->
<g id="edge10" class="edge">
<title>process&#45;&gt;makeup</title>
<path fill="none" stroke="#555555" stroke-dasharray="5,2" d="M185.18,-171.47C202.42,-162.65 223.92,-151.93 243.47,-143 253.23,-138.54 263.72,-134 273.88,-129.73"/>
<polygon fill="#555555" stroke="#555555" points="275.02,-133.05 282.91,-125.98 272.33,-126.59 275.02,-133.05"/>
<text text-anchor="middle" x="283.26" y="-145.7" font-family="Arial" font-size="9.00"> Water Loss / Equiv.</text>
</g>
<!-- condenser&#45;&gt;makeup -->
<g id="edge9" class="edge">
<title>condenser&#45;&gt;makeup</title>
<path fill="none" stroke="#4a90e2" d="M328,-171.66C328,-161.56 328,-148.5 328,-136.85"/>
<polygon fill="#4a90e2" stroke="#4a90e2" points="331.5,-136.9 328,-126.9 324.5,-136.9 331.5,-136.9"/>
<text text-anchor="middle" x="368.28" y="-145.7" font-family="Arial" font-size="9.00"> Condensate Return</text>
</g>
<!-- makeup&#45;&gt;boiler -->
<g id="edge11" class="edge">
<title>makeup&#45;&gt;boiler</title>
<path fill="none" stroke="#4a90e2" d="M407.39,-116.65C476.38,-125.97 568.8,-143.41 592,-171.8 815.85,-445.75 615.2,-280.54 597,-319.4 595.34,-322.95 593.12,-326.26 590.57,-329.32"/>
<polygon fill="#4a90e2" stroke="#4a90e2" points="588.31,-326.63 583.76,-336.19 593.28,-331.56 588.31,-326.63"/>
<text text-anchor="middle" x="673.77" y="-228.5" font-family="Arial" font-size="9.00"> Feedwater Input</text>
</g>
<!-- desand -->
<g id="node13" class="node">
<title>desand</title>
<polygon fill="#f9f9f9" stroke="#777777" points="992.2,-456.2 833.8,-456.2 833.8,-420.2 992.2,-420.2 992.2,-456.2"/>
<text text-anchor="middle" x="913" y="-441.2" font-family="Arial-Bold" font-size="10.00" fill="#000000">DESANDING &amp;</text>
<text text-anchor="middle" x="913" y="-429.2" font-family="Arial-Bold" font-size="10.00" fill="#000000">OIL REMOVAL</text>
</g>
<!-- pome&#45;&gt;desand -->
<g id="edge12" class="edge">
<title>pome&#45;&gt;desand</title>
<path fill="none" stroke="#555555" d="M913,-493.01C913,-485.43 913,-476.3 913,-467.74"/>
<polygon fill="#555555" stroke="#555555" points="916.5,-467.74 913,-457.74 909.5,-467.74 916.5,-467.74"/>
</g>
<!-- stab -->
<g id="node14" class="node">
<title>stab</title>
<polygon fill="#f9f9f9" stroke="#777777" points="992.2,-373.4 833.8,-373.4 833.8,-337.4 992.2,-337.4 992.2,-373.4"/>
<text text-anchor="middle" x="913" y="-352.4" font-family="Arial-Bold" font-size="10.00" fill="#000000">STABILIZATION POND</text>
</g>
<!-- desand&#45;&gt;stab -->
<g id="edge13" class="edge">
<title>desand&#45;&gt;stab</title>
<path fill="none" stroke="#555555" d="M913,-420.06C913,-409.96 913,-396.9 913,-385.25"/>
<polygon fill="#555555" stroke="#555555" points="916.5,-385.3 913,-375.3 909.5,-385.3 916.5,-385.3"/>
</g>
<!-- digester -->
<g id="node15" class="node">
<title>digester</title>
<polygon fill="#777777" stroke="#777777" points="992.2,-290.6 833.8,-290.6 833.8,-254.6 992.2,-254.6 992.2,-290.6"/>
<text text-anchor="middle" x="913" y="-275.6" font-family="Arial-Bold" font-size="10.00" fill="white">STANDALONE</text>
<text text-anchor="middle" x="913" y="-263.6" font-family="Arial-Bold" font-size="10.00" fill="white">ANAEROBIC DIGESTER</text>
</g>
<!-- stab&#45;&gt;digester -->
<g id="edge14" class="edge">
<title>stab&#45;&gt;digester</title>
<path fill="none" stroke="#555555" d="M913,-337.26C913,-327.16 913,-314.1 913,-302.45"/>
<polygon fill="#555555" stroke="#555555" points="916.5,-302.5 913,-292.5 909.5,-302.5 916.5,-302.5"/>
</g>
<!-- clean -->
<g id="node16" class="node">
<title>clean</title>
<polygon fill="#f9f9f9" stroke="#777777" points="992.2,-207.8 833.8,-207.8 833.8,-171.8 992.2,-171.8 992.2,-207.8"/>
<text text-anchor="middle" x="913" y="-192.8" font-family="Arial-Bold" font-size="10.00" fill="#000000">BIOGAS CLEANING</text>
<text text-anchor="middle" x="913" y="-180.8" font-family="Arial-Bold" font-size="10.00" fill="#000000">SYSTEM</text>
</g>
<!-- digester&#45;&gt;clean -->
<g id="edge15" class="edge">
<title>digester&#45;&gt;clean</title>
<path fill="none" stroke="#555555" d="M913,-254.46C913,-244.36 913,-231.3 913,-219.65"/>
<polygon fill="#555555" stroke="#555555" points="916.5,-219.7 913,-209.7 909.5,-219.7 916.5,-219.7"/>
<text text-anchor="middle" x="950.77" y="-228.5" font-family="Arial" font-size="9.00"> Biogas Production</text>
</g>
<!-- fac_pond -->
<g id="node19" class="node">
<title>fac_pond</title>
<polygon fill="#f9f9f9" stroke="#777777" points="1168.2,-207.8 1009.8,-207.8 1009.8,-171.8 1168.2,-171.8 1168.2,-207.8"/>
<text text-anchor="middle" x="1089" y="-186.8" font-family="Arial-Bold" font-size="10.00" fill="#000000">FACULTATIVE POND</text>
</g>
<!-- digester&#45;&gt;fac_pond -->
<g id="edge18" class="edge">
<title>digester&#45;&gt;fac_pond</title>
<path fill="none" stroke="#555555" d="M953.4,-254.23C966.11,-248.68 980.18,-242.46 993,-236.6 1009.39,-229.11 1027.24,-220.67 1043.06,-213.09"/>
<polygon fill="#555555" stroke="#555555" points="1044.25,-216.4 1051.75,-208.92 1041.22,-210.09 1044.25,-216.4"/>
<text text-anchor="middle" x="1058.28" y="-228.5" font-family="Arial" font-size="9.00"> Standalone Digestate</text>
</g>
<!-- engine -->
<g id="node17" class="node">
<title>engine</title>
<polygon fill="#f9f9f9" stroke="#777777" points="992.2,-125 833.8,-125 833.8,-89 992.2,-89 992.2,-125"/>
<text text-anchor="middle" x="913" y="-110" font-family="Arial-Bold" font-size="10.00" fill="#000000">BIOGAS ENGINE</text>
<text text-anchor="middle" x="913" y="-98" font-family="Arial-Bold" font-size="10.00" fill="#000000">GENERATOR</text>
</g>
<!-- clean&#45;&gt;engine -->
<g id="edge16" class="edge">
<title>clean&#45;&gt;engine</title>
<path fill="none" stroke="#555555" d="M913,-171.66C913,-161.56 913,-148.5 913,-136.85"/>
<polygon fill="#555555" stroke="#555555" points="916.5,-136.9 913,-126.9 909.5,-136.9 916.5,-136.9"/>
</g>
<!-- elec2 -->
<g id="node18" class="node">
<title>elec2</title>
<polygon fill="#555555" stroke="#555555" points="992.2,-52 833.8,-52 833.8,-16 992.2,-16 992.2,-52"/>
<text text-anchor="middle" x="913" y="-37" font-family="Arial-Bold" font-size="10.00" fill="white">ELECTRICITY</text>
<text text-anchor="middle" x="913" y="-25" font-family="Arial-Bold" font-size="10.00" fill="white">GENERATION (Biogas)</text>
</g>
<!-- engine&#45;&gt;elec2 -->
<g id="edge17" class="edge">
<title>engine&#45;&gt;elec2</title>
<path fill="none" stroke="#555555" d="M913,-88.81C913,-81.23 913,-72.1 913,-63.54"/>
<polygon fill="#555555" stroke="#555555" points="916.5,-63.54 913,-53.54 909.5,-63.54 916.5,-63.54"/>
</g>
<!-- solids -->
<g id="node20" class="node">
<title>solids</title>
<polygon fill="#f9f9f9" stroke="#777777" points="1168.2,-125 1009.8,-125 1009.8,-89 1168.2,-89 1168.2,-125"/>
<text text-anchor="middle" x="1089" y="-110" font-family="Arial-Bold" font-size="10.00" fill="#000000">SOLID</text>
<text text-anchor="middle" x="1089" y="-98" font-family="Arial-Bold" font-size="10.00" fill="#000000">REMOVAL</text>
</g>
<!-- fac_pond&#45;&gt;solids -->
<g id="edge19" class="edge">
<title>fac_pond&#45;&gt;solids</title>
<path fill="none" stroke="#555555" d="M1089,-171.66C1089,-161.56 1089,-148.5 1089,-136.85"/>
<polygon fill="#555555" stroke="#555555" points="1092.5,-136.9 1089,-126.9 1085.5,-136.9 1092.5,-136.9"/>
<text text-anchor="middle" x="1102.51" y="-145.7" font-family="Arial" font-size="9.00"> Solids</text>
</g>
<!-- liquids -->
<g id="node21" class="node">
<title>liquids</title>
<polygon fill="#f9f9f9" stroke="#777777" points="1344.2,-125 1185.8,-125 1185.8,-89 1344.2,-89 1344.2,-125"/>
<text text-anchor="middle" x="1265" y="-110" font-family="Arial-Bold" font-size="10.00" fill="#000000">LIQUID DISCHARGE</text>
<text text-anchor="middle" x="1265" y="-98" font-family="Arial-Bold" font-size="10.00" fill="#000000">TO WATER BODIES</text>
</g>
<!-- fac_pond&#45;&gt;liquids -->
<g id="edge20" class="edge">
<title>fac_pond&#45;&gt;liquids</title>
<path fill="none" stroke="#555555" d="M1126.76,-171.47C1153.11,-159.37 1188.52,-143.11 1216.89,-130.08"/>
<polygon fill="#555555" stroke="#555555" points="1218,-133.43 1225.63,-126.08 1215.08,-127.07 1218,-133.43"/>
<text text-anchor="middle" x="1202.51" y="-145.7" font-family="Arial" font-size="9.00"> Liquids</text>
</g>
</g>
</svg>
