<?xml version="1.0" encoding="UTF-8" standalone="no"?>
<!DOCTYPE svg PUBLIC "-//W3C//DTD SVG 1.1//EN"
 "http://www.w3.org/Graphics/SVG/1.1/DTD/svg11.dtd">
<!-- Generated by graphviz version 9.0.0 (0)
 -->
<!-- Title: Energy_Valorization_Scenario1_Cascade Pages: 1 -->
<svg width="864pt" height="513pt"
 viewBox="0.00 0.00 864.00 513.49" xmlns="http://www.w3.org/2000/svg" xmlns:xlink="http://www.w3.org/1999/xlink">
<g id="graph0" class="graph" transform="scale(0.786599 0.786599) rotate(0) translate(4 648.8)">
<title>Energy_Valorization_Scenario1_Cascade</title>
<polygon fill="white" stroke="none" points="-4,4 -4,-648.8 1094.4,-648.8 1094.4,4 -4,4"/>
<text text-anchor="middle" x="545.2" y="-629.1" font-family="Arial-Bold" font-size="13.00">CONCEPTUAL DIAGRAM FOR ENERGY VALORIZATION (SCENARIO 1): EFB COMBUSTION &amp; EXTRACTION&#45;CONDENSATION CYCLE</text>
<!-- mill -->
<g id="node1" class="node">
<title>mill</title>
<polygon fill="#dddddd" stroke="#777777" points="653.4,-621.2 495,-621.2 495,-585.2 653.4,-585.2 653.4,-621.2"/>
<text text-anchor="middle" x="574.2" y="-599.6" font-family="Arial-Bold" font-size="12.00" fill="#000000">PALM OIL MILL</text>
</g>
<!-- efb -->
<g id="node2" class="node">
<title>efb</title>
<polygon fill="#e6f2ff" stroke="#2a78d6" points="502.4,-548.2 344,-548.2 344,-512.2 502.4,-512.2 502.4,-548.2"/>
<text text-anchor="middle" x="423.2" y="-533.2" font-family="Arial-Bold" font-size="10.00" fill="#000000">EFB</text>
<text text-anchor="middle" x="423.2" y="-521.2" font-family="Arial-Bold" font-size="10.00" fill="#000000">(Empty Fruit Bunches)</text>
</g>
<!-- mill&#45;&gt;efb -->
<g id="edge1" class="edge">
<title>mill&#45;&gt;efb</title>
<path fill="none" stroke="#555555" d="M537.26,-584.83C517.15,-575.38 492.05,-563.58 470.53,-553.45"/>
<polygon fill="#555555" stroke="#555555" points="472.19,-550.37 461.65,-549.28 469.21,-556.7 472.19,-550.37"/>
</g>
<!-- fiber -->
<g id="node3" class="node">
<title>fiber</title>
<polygon fill="#e6f2ff" stroke="#2a78d6" points="547.4,-494.2 389,-494.2 389,-458.2 547.4,-458.2 547.4,-494.2"/>
<text text-anchor="middle" x="468.2" y="-473.2" font-family="Arial-Bold" font-size="10.00" fill="#000000">FIBER</text>
</g>
<!-- mill&#45;&gt;fiber -->
<g id="edge2" class="edge">
<title>mill&#45;&gt;fiber</title>
<path fill="none" stroke="#555555" d="M564.1,-584.9C552.61,-565.97 532.63,-535.24 511.2,-512.2 507.96,-508.71 504.36,-505.26 500.66,-501.97"/>
<polygon fill="#555555" stroke="#555555" points="503.04,-499.4 493.15,-495.6 498.52,-504.74 503.04,-499.4"/>
</g>
<!-- shell -->
<g id="node4" class="node">
<title>shell</title>
<polygon fill="#e6f2ff" stroke="#2a78d6" points="710.4,-494.2 552,-494.2 552,-458.2 710.4,-458.2 710.4,-494.2"/>
<text text-anchor="middle" x="631.2" y="-473.2" font-family="Arial-Bold" font-size="10.00" fill="#000000">SHELL</text>
</g>
<!-- mill&#45;&gt;shell -->
<g id="edge3" class="edge">
<title>mill&#45;&gt;shell</title>
<path fill="none" stroke="#555555" d="M582.13,-584.82C591.57,-564.11 607.47,-529.25 618.6,-504.83"/>
<polygon fill="#555555" stroke="#555555" points="621.75,-506.36 622.71,-495.81 615.38,-503.46 621.75,-506.36"/>
</g>
<!-- pome -->
<g id="node12" class="node">
<title>pome</title>
<polygon fill="#f5f5f5" stroke="#777777" points="797.4,-548.2 639,-548.2 639,-512.2 797.4,-512.2 797.4,-548.2"/>
<text text-anchor="middle" x="718.2" y="-533.2" font-family="Arial-Bold" font-size="10.00" fill="#000000">POME</text>
<text text-anchor="middle" x="718.2" y="-521.2" font-family="Arial-Bold" font-size="10.00" fill="#000000">(Palm Oil Mill Effluent)</text>
</g>
<!-- mill&#45;&gt;pome -->
<g id="edge4" class="edge">
<title>mill&#45;&gt;pome</title>
<path fill="none" stroke="#555555" d="M609.43,-584.83C628.52,-575.42 652.32,-563.68 672.79,-553.59"/>
<polygon fill="#555555" stroke="#555555" points="674.06,-556.87 681.48,-549.3 670.96,-550.59 674.06,-556.87"/>
</g>
<!-- pre -->
<g id="node5" class="node">
<title>pre</title>
<polygon fill="#fff2cc" stroke="#d6b656" points="453.4,-440.2 295,-440.2 295,-404.2 453.4,-404.2 453.4,-440.2"/>
<text text-anchor="middle" x="374.2" y="-425.2" font-family="Arial-Bold" font-size="10.00" fill="#000000">MECHANICAL</text>
<text text-anchor="middle" x="374.2" y="-413.2" font-family="Arial-Bold" font-size="10.00" fill="#000000">PRETREATMENT</text>
</g>
<!-- efb&#45;&gt;pre -->
<g id="edge5" class="edge">
<title>efb&#45;&gt;pre</title>
<path fill="none" stroke="#555555" d="M402,-512.02C396.77,-506.81 391.68,-500.72 388.2,-494.2 381.25,-481.17 377.73,-465.13 375.96,-451.6"/>
<polygon fill="#555555" stroke="#555555" points="379.47,-451.58 374.96,-442 372.51,-452.3 379.47,-451.58"/>
</g>
<!-- boiler -->
<g id="node6" class="node">
<title>boiler</title>
<polygon fill="#f9f9f9" stroke="#777777" points="568.4,-357.4 410,-357.4 410,-321.4 568.4,-321.4 568.4,-357.4"/>
<text text-anchor="middle" x="489.2" y="-342.4" font-family="Arial-Bold" font-size="10.00" fill="#000000">COMBUSTION</text>
<text text-anchor="middle" x="489.2" y="-330.4" font-family="Arial-Bold" font-size="10.00" fill="#000000">BOILER</text>
</g>
<!-- fiber&#45;&gt;boiler -->
<g id="edge7" class="edge">
<title>fiber&#45;&gt;boiler</title>
<path fill="none" stroke="#555555" d="M470.9,-457.85C474.41,-435.31 480.59,-395.64 484.79,-368.7"/>
<polygon fill="#555555" stroke="#555555" points="488.19,-369.6 486.27,-359.18 481.28,-368.52 488.19,-369.6"/>
<text text-anchor="middle" x="500.46" y="-419.5" font-family="Arial" font-size="9.00"> Fuel Input</text>
</g>
<!-- shell&#45;&gt;boiler -->
<g id="edge8" class="edge">
<title>shell&#45;&gt;boiler</title>
<path fill="none" stroke="#555555" d="M612.93,-457.85C588.22,-434.4 543.99,-392.41 515.65,-365.51"/>
<polygon fill="#555555" stroke="#555555" points="518.16,-363.07 508.5,-358.72 513.34,-368.15 518.16,-363.07"/>
<text text-anchor="middle" x="614.46" y="-419.5" font-family="Arial" font-size="9.00"> Fuel Input</text>
</g>
<!-- pre&#45;&gt;boiler -->
<g id="edge6" class="edge">
<title>pre&#45;&gt;boiler</title>
<path fill="none" stroke="#555555" d="M395.16,-403.87C406.12,-395.05 419.88,-384.33 432.67,-375.4 438.19,-371.55 444.13,-367.64 450.01,-363.89"/>
<polygon fill="#555555" stroke="#555555" points="451.86,-366.86 458.47,-358.59 448.14,-360.93 451.86,-366.86"/>
<text text-anchor="middle" x="454.46" y="-378.1" font-family="Arial" font-size="9.00"> Fuel Input</text>
</g>
<!-- turbine -->
<g id="node7" class="node">
<title>turbine</title>
<polygon fill="#2a78d6" stroke="#2a78d6" points="454.97,-274.6 293.43,-274.6 293.43,-238.6 454.97,-238.6 454.97,-274.6"/>
<text text-anchor="middle" x="374.2" y="-259.6" font-family="Arial-Bold" font-size="10.00" fill="white">EXTRACTION&#45;CONDENSATION</text>
<text text-anchor="middle" x="374.2" y="-247.6" font-family="Arial-Bold" font-size="10.00" fill="white">STEAM TURBINE</text>
</g>
<!-- boiler&#45;&gt;turbine -->
<g id="edge9" class="edge">
<title>boiler&#45;&gt;turbine</title>
<path fill="none" stroke="#4a90e2" d="M461.75,-320.91C453.31,-315.42 444.04,-309.25 435.67,-303.4 425.85,-296.54 415.34,-288.84 405.83,-281.75"/>
<polygon fill="#4a90e2" stroke="#4a90e2" points="408.03,-279.02 397.94,-275.81 403.83,-284.62 408.03,-279.02"/>
<text text-anchor="middle" x="480.47" y="-295.3" font-family="Arial" font-size="9.00"> High&#45;Pressure Steam</text>
</g>
<!-- elec1 -->
<g id="node8" class="node">
<title>elec1</title>
<polygon fill="#2a78d6" stroke="#2a78d6" points="158.4,-191.8 0,-191.8 0,-155.8 158.4,-155.8 158.4,-191.8"/>
<text text-anchor="middle" x="79.2" y="-176.8" font-family="Arial-Bold" font-size="10.00" fill="white">ELECTRICITY</text>
<text text-anchor="middle" x="79.2" y="-164.8" font-family="Arial-Bold" font-size="10.00" fill="white">GENERATION (ECT)</text>
</g>
<!-- turbine&#45;&gt;elec1 -->
<g id="edge10" class="edge">
<title>turbine&#45;&gt;elec1</title>
<path fill="none" stroke="#555555" d="M310.55,-238.17C264.59,-225.58 202.36,-208.53 154.02,-195.29"/>
<polygon fill="#555555" stroke="#555555" points="155.02,-191.94 144.45,-192.67 153.17,-198.69 155.02,-191.94"/>
</g>
<!-- process -->
<g id="node9" class="node">
<title>process</title>
<polygon fill="#f9f9f9" stroke="#777777" points="334.4,-191.8 176,-191.8 176,-155.8 334.4,-155.8 334.4,-191.8"/>
<text text-anchor="middle" x="255.2" y="-176.8" font-family="Arial-Bold" font-size="10.00" fill="#000000">INDUSTRIAL PROCESS</text>
<text text-anchor="middle" x="255.2" y="-164.8" font-family="Arial-Bold" font-size="10.00" fill="#000000">(Thermal Demand)</text>
</g>
<!-- turbine&#45;&gt;process -->
<g id="edge11" class="edge">
<title>turbine&#45;&gt;process</title>
<path fill="none" stroke="#4a90e2" d="M348.67,-238.27C331.57,-226.66 308.85,-211.23 290.09,-198.49"/>
<polygon fill="#4a90e2" stroke="#4a90e2" points="292.18,-195.68 281.94,-192.96 288.25,-201.47 292.18,-195.68"/>
<text text-anchor="middle" x="356.71" y="-212.5" font-family="Arial" font-size="9.00"> Extracted Steam</text>
</g>
<!-- condenser -->
<g id="node10" class="node">
<title>condenser</title>
<polygon fill="#f9f9f9" stroke="#777777" points="510.4,-191.8 352,-191.8 352,-155.8 510.4,-155.8 510.4,-191.8"/>
<text text-anchor="middle" x="431.2" y="-176.8" font-family="Arial-Bold" font-size="10.00" fill="#000000">CONDENSATION</text>
<text text-anchor="middle" x="431.2" y="-164.8" font-family="Arial-Bold" font-size="10.00" fill="#000000">SYSTEM</text>
</g>
<!-- turbine&#45;&gt;condenser -->
<g id="edge12" class="edge">
<title>turbine&#45;&gt;condenser</title>
<path fill="none" stroke="#4a90e2" d="M386.29,-238.46C393.87,-227.72 403.8,-213.64 412.4,-201.46"/>
<polygon fill="#4a90e2" stroke="#4a90e2" points="415.16,-203.62 418.06,-193.43 409.44,-199.58 415.16,-203.62"/>
<text text-anchor="middle" x="443.22" y="-212.5" font-family="Arial" font-size="9.00"> Remaining Steam</text>
</g>
<!-- makeup -->
<g id="node11" class="node">
<title>makeup</title>
<polygon fill="#f9f9f9" stroke="#777777" points="510.4,-109 352,-109 352,-73 510.4,-73 510.4,-109"/>
<text text-anchor="middle" x="431.2" y="-94" font-family="Arial-Bold" font-size="10.00" fill="#000000">MAKE&#45;UP WATER</text>
<text text-anchor="middle" x="431.2" y="-82" font-family="Arial-Bold" font-size="10.00" fill="#000000">TREATMENT</text>
</g>
<!-- process&#45;&gt;makeup -->
<g id="edge14" class="edge">
<title>process&#45;&gt;makeup</title>
<path fill="none" stroke="#555555" stroke-dasharray="5,2" d="M288.38,-155.47C305.62,-146.65 327.12,-135.93 346.67,-127 356.43,-122.54 366.92,-118 377.08,-113.73"/>
<polygon fill="#555555" stroke="#555555" points="378.22,-117.05 386.11,-109.98 375.53,-110.59 378.22,-117.05"/>
<text text-anchor="middle" x="387.46" y="-129.7" font-family="Arial" font-size="9.00"> Water Loss / Equiv.</text>
</g>
<!-- condenser&#45;&gt;makeup -->
<g id="edge13" class="edge">
<title>condenser&#45;&gt;makeup</title>
<path fill="none" stroke="#4a90e2" d="M431.2,-155.66C431.2,-145.56 431.2,-132.5 431.2,-120.85"/>
<polygon fill="#4a90e2" stroke="#4a90e2" points="434.7,-120.9 431.2,-110.9 427.7,-120.9 434.7,-120.9"/>
<text text-anchor="middle" x="471.48" y="-129.7" font-family="Arial" font-size="9.00"> Condensate Return</text>
</g>
<!-- makeup&#45;&gt;boiler -->
<g id="edge15" class="edge">
<title>makeup&#45;&gt;boiler</title>
<path fill="none" stroke="#4a90e2" d="M495.56,-109.36C503.52,-113.94 510.75,-119.71 516.2,-127 563.19,-189.86 554.23,-230.89 524.2,-303.4 522.86,-306.63 521.07,-309.72 518.99,-312.63"/>
<polygon fill="#4a90e2" stroke="#4a90e2" points="516.43,-310.23 512.61,-320.11 521.76,-314.77 516.43,-310.23"/>
<text text-anchor="middle" x="582.97" y="-212.5" font-family="Arial" font-size="9.00"> Feedwater Input</text>
</g>
<!-- desand -->
<g id="node13" class="node">
<title>desand</title>
<polygon fill="#f9f9f9" stroke="#777777" points="804.4,-440.2 646,-440.2 646,-404.2 804.4,-404.2 804.4,-440.2"/>
<text text-anchor="middle" x="725.2" y="-425.2" font-family="Arial-Bold" font-size="10.00" fill="#000000">DESANDING &amp;</text>
<text text-anchor="middle" x="725.2" y="-413.2" font-family="Arial-Bold" font-size="10.00" fill="#000000">OIL REMOVAL</text>
</g>
<!-- pome&#45;&gt;desand -->
<g id="edge16" class="edge">
<title>pome&#45;&gt;desand</title>
<path fill="none" stroke="#555555" d="M719.32,-512.17C720.39,-495.96 722.03,-471.26 723.3,-451.99"/>
<polygon fill="#555555" stroke="#555555" points="726.79,-452.26 723.96,-442.05 719.8,-451.8 726.79,-452.26"/>
</g>
<!-- stab -->
<g id="node14" class="node">
<title>stab</title>
<polygon fill="#f9f9f9" stroke="#777777" points="804.4,-357.4 646,-357.4 646,-321.4 804.4,-321.4 804.4,-357.4"/>
<text text-anchor="middle" x="725.2" y="-336.4" font-family="Arial-Bold" font-size="10.00" fill="#000000">STABILIZATION POND</text>
</g>
<!-- desand&#45;&gt;stab -->
<g id="edge17" class="edge">
<title>desand&#45;&gt;stab</title>
<path fill="none" stroke="#555555" d="M725.2,-404.06C725.2,-393.96 725.2,-380.9 725.2,-369.25"/>
<polygon fill="#555555" stroke="#555555" points="728.7,-369.3 725.2,-359.3 721.7,-369.3 728.7,-369.3"/>
</g>
<!-- digester -->
<g id="node15" class="node">
<title>digester</title>
<polygon fill="#777777" stroke="#777777" points="804.4,-274.6 646,-274.6 646,-238.6 804.4,-238.6 804.4,-274.6"/>
<text text-anchor="middle" x="725.2" y="-259.6" font-family="Arial-Bold" font-size="10.00" fill="white">STANDALONE</text>
<text text-anchor="middle" x="725.2" y="-247.6" font-family="Arial-Bold" font-size="10.00" fill="white">ANAEROBIC DIGESTER</text>
</g>
<!-- stab&#45;&gt;digester -->
<g id="edge18" class="edge">
<title>stab&#45;&gt;digester</title>
<path fill="none" stroke="#555555" d="M725.2,-321.26C725.2,-311.16 725.2,-298.1 725.2,-286.45"/>
<polygon fill="#555555" stroke="#555555" points="728.7,-286.5 725.2,-276.5 721.7,-286.5 728.7,-286.5"/>
</g>
<!-- clean -->
<g id="node16" class="node">
<title>clean</title>
<polygon fill="#f9f9f9" stroke="#777777" points="738.4,-191.8 580,-191.8 580,-155.8 738.4,-155.8 738.4,-191.8"/>
<text text-anchor="middle" x="659.2" y="-176.8" font-family="Arial-Bold" font-size="10.00" fill="#000000">BIOGAS CLEANING</text>
<text text-anchor="middle" x="659.2" y="-164.8" font-family="Arial-Bold" font-size="10.00" fill="#000000">SYSTEM</text>
</g>
<!-- digester&#45;&gt;clean -->
<g id="edge19" class="edge">
<title>digester&#45;&gt;clean</title>
<path fill="none" stroke="#555555" d="M711.2,-238.46C702.34,-227.61 690.7,-213.36 680.68,-201.09"/>
<polygon fill="#555555" stroke="#555555" points="683.4,-198.89 674.36,-193.36 677.98,-203.32 683.4,-198.89"/>
<text text-anchor="middle" x="733.97" y="-212.5" font-family="Arial" font-size="9.00"> Biogas Production</text>
</g>
<!-- fac_pond -->
<g id="node19" class="node">
<title>fac_pond</title>
<polygon fill="#f9f9f9" stroke="#777777" points="914.4,-191.8 756,-191.8 756,-155.8 914.4,-155.8 914.4,-191.8"/>
<text text-anchor="middle" x="835.2" y="-170.8" font-family="Arial-Bold" font-size="10.00" fill="#000000">FACULTATIVE POND</text>
</g>
<!-- digester&#45;&gt;fac_pond -->
<g id="edge22" class="edge">
<title>digester&#45;&gt;fac_pond</title>
<path fill="none" stroke="#555555" d="M751.09,-238.26C759.2,-232.72 768.13,-226.49 776.2,-220.6 785.45,-213.85 795.34,-206.3 804.33,-199.31"/>
<polygon fill="#555555" stroke="#555555" points="806.39,-202.14 812.11,-193.22 802.08,-196.63 806.39,-202.14"/>
<text text-anchor="middle" x="834.48" y="-212.5" font-family="Arial" font-size="9.00"> Standalone Digestate</text>
</g>
<!-- engine -->
<g id="node17" class="node">
<title>engine</title>
<polygon fill="#f9f9f9" stroke="#777777" points="738.4,-109 580,-109 580,-73 738.4,-73 738.4,-109"/>
<text text-anchor="middle" x="659.2" y="-94" font-family="Arial-Bold" font-size="10.00" fill="#000000">BIOGAS ENGINE</text>
<text text-anchor="middle" x="659.2" y="-82" font-family="Arial-Bold" font-size="10.00" fill="#000000">GENERATOR</text>
</g>
<!-- clean&#45;&gt;engine -->
<g id="edge20" class="edge">
<title>clean&#45;&gt;engine</title>
<path fill="none" stroke="#555555" d="M659.2,-155.66C659.2,-145.56 659.2,-132.5 659.2,-120.85"/>
<polygon fill="#555555" stroke="#555555" points="662.7,-120.9 659.2,-110.9 655.7,-120.9 662.7,-120.9"/>
</g>
<!-- elec2 -->
<g id="node18" class="node">
<title>elec2</title>
<polygon fill="#555555" stroke="#555555" points="738.4,-36 580,-36 580,0 738.4,0 738.4,-36"/>
<text text-anchor="middle" x="659.2" y="-21" font-family="Arial-Bold" font-size="10.00" fill="white">ELECTRICITY</text>
<text text-anchor="middle" x="659.2" y="-9" font-family="Arial-Bold" font-size="10.00" fill="white">GENERATION (Biogas)</text>
</g>
<!-- engine&#45;&gt;elec2 -->
<g id="edge21" class="edge">
<title>engine&#45;&gt;elec2</title>
<path fill="none" stroke="#555555" d="M659.2,-72.81C659.2,-65.23 659.2,-56.1 659.2,-47.54"/>
<polygon fill="#555555" stroke="#555555" points="662.7,-47.54 659.2,-37.54 655.7,-47.54 662.7,-47.54"/>
</g>
<!-- solids -->
<g id="node20" class="node">
<title>solids</title>
<polygon fill="#f9f9f9" stroke="#777777" points="914.4,-109 756,-109 756,-73 914.4,-73 914.4,-109"/>
<text text-anchor="middle" x="835.2" y="-94" font-family="Arial-Bold" font-size="10.00" fill="#000000">SOLID</text>
<text text-anchor="middle" x="835.2" y="-82" font-family="Arial-Bold" font-size="10.00" fill="#000000">REMOVAL</text>
</g>
<!-- fac_pond&#45;&gt;solids -->
<g id="edge23" class="edge">
<title>fac_pond&#45;&gt;solids</title>
<path fill="none" stroke="#555555" d="M835.2,-155.66C835.2,-145.56 835.2,-132.5 835.2,-120.85"/>
<polygon fill="#555555" stroke="#555555" points="838.7,-120.9 835.2,-110.9 831.7,-120.9 838.7,-120.9"/>
<text text-anchor="middle" x="848.71" y="-129.7" font-family="Arial" font-size="9.00"> Solids</text>
</g>
<!-- liquids -->
<g id="node21" class="node">
<title>liquids</title>
<polygon fill="#f9f9f9" stroke="#777777" points="1090.4,-109 932,-109 932,-73 1090.4,-73 1090.4,-109"/>
<text text-anchor="middle" x="1011.2" y="-94" font-family="Arial-Bold" font-size="10.00" fill="#000000">LIQUID DISCHARGE</text>
<text text-anchor="middle" x="1011.2" y="-82" font-family="Arial-Bold" font-size="10.00" fill="#000000">TO WATER BODIES</text>
</g>
<!-- fac_pond&#45;&gt;liquids -->
<g id="edge24" class="edge">
<title>fac_pond&#45;&gt;liquids</title>
<path fill="none" stroke="#555555" d="M872.96,-155.47C899.31,-143.37 934.72,-127.11 963.09,-114.08"/>
<polygon fill="#555555" stroke="#555555" points="964.2,-117.43 971.83,-110.08 961.28,-111.07 964.2,-117.43"/>
<text text-anchor="middle" x="949.71" y="-129.7" font-family="Arial" font-size="9.00"> Liquids</text>
</g>
</g>
</svg>
