<?xml version="1.0" encoding="UTF-8" standalone="no"?>
<!DOCTYPE svg PUBLIC "-//W3C//DTD SVG 1.1//EN"
 "http://www.w3.org/Graphics/SVG/1.1/DTD/svg11.dtd">
<!-- Generated by graphviz version 9.0.0 (0)
 -->
<!-- Title: Energy_Valorization_Scenario2 Pages: 1 -->
<svg width="808pt" height="844pt"
 viewBox="0.00 0.00 808.20 843.60" xmlns="http://www.w3.org/2000/svg" xmlns:xlink="http://www.w3.org/1999/xlink">
<g id="graph0" class="graph" transform="scale(1 1) rotate(0) translate(4 839.6)">
<title>Energy_Valorization_Scenario2</title>
<polygon fill="white" stroke="none" points="-4,4 -4,-839.6 804.2,-839.6 804.2,4 -4,4"/>
<text text-anchor="middle" x="400.1" y="-819.9" font-family="Arial-Bold" font-size="13.00">CONCEPTUAL DIAGRAM FOR ENERGY VALORIZATION (SCENARIO 2): CO&#45;DIGESTION &amp; BACK&#45;PRESSURE CYCLE</text>
<!-- mill -->
<g id="node1" class="node">
<title>mill</title>
<polygon fill="#dddddd" stroke="#777777" points="486.2,-812 327.8,-812 327.8,-776 486.2,-776 486.2,-812"/>
<text text-anchor="middle" x="407" y="-790.4" font-family="Arial-Bold" font-size="12.00" fill="#000000">PALM OIL MILL</text>
</g>
<!-- fiber -->
<g id="node2" class="node">
<title>fiber</title>
<polygon fill="#e6f2ff" stroke="#2a78d6" points="257.2,-739 98.8,-739 98.8,-703 257.2,-703 257.2,-739"/>
<text text-anchor="middle" x="178" y="-718" font-family="Arial-Bold" font-size="10.00" fill="#000000">FIBER</text>
</g>
<!-- mill&#45;&gt;fiber -->
<g id="edge1" class="edge">
<title>mill&#45;&gt;fiber</title>
<path fill="none" stroke="#555555" d="M350.69,-775.54C318.66,-765.61 278.36,-753.12 244.75,-742.7"/>
<polygon fill="#555555" stroke="#555555" points="246.13,-739.46 235.54,-739.84 244.06,-746.14 246.13,-739.46"/>
</g>
<!-- shell -->
<g id="node3" class="node">
<title>shell</title>
<polygon fill="#e6f2ff" stroke="#2a78d6" points="433.2,-739 274.8,-739 274.8,-703 433.2,-703 433.2,-739"/>
<text text-anchor="middle" x="354" y="-718" font-family="Arial-Bold" font-size="10.00" fill="#000000">SHELL</text>
</g>
<!-- mill&#45;&gt;shell -->
<g id="edge2" class="edge">
<title>mill&#45;&gt;shell</title>
<path fill="none" stroke="#555555" d="M394.17,-775.81C387.99,-767.53 380.43,-757.41 373.55,-748.19"/>
<polygon fill="#555555" stroke="#555555" points="376.4,-746.16 367.62,-740.24 370.79,-750.35 376.4,-746.16"/>
</g>
<!-- pome -->
<g id="node11" class="node">
<title>pome</title>
<polygon fill="#e6f9e6" stroke="#008300" points="647.2,-739 488.8,-739 488.8,-703 647.2,-703 647.2,-739"/>
<text text-anchor="middle" x="568" y="-724" font-family="Arial-Bold" font-size="10.00" fill="#000000">POME</text>
<text text-anchor="middle" x="568" y="-712" font-family="Arial-Bold" font-size="10.00" fill="#000000">(Palm Oil Mill Effluent)</text>
</g>
<!-- mill&#45;&gt;pome -->
<g id="edge4" class="edge">
<title>mill&#45;&gt;pome</title>
<path fill="none" stroke="#555555" d="M446.39,-775.63C468.02,-766.09 495.07,-754.16 518.17,-743.98"/>
<polygon fill="#555555" stroke="#555555" points="519.34,-747.28 527.08,-740.05 516.52,-740.88 519.34,-747.28"/>
</g>
<!-- efb -->
<g id="node12" class="node">
<title>efb</title>
<polygon fill="#e6f9e6" stroke="#008300" points="540.2,-685 381.8,-685 381.8,-649 540.2,-649 540.2,-685"/>
<text text-anchor="middle" x="461" y="-670" font-family="Arial-Bold" font-size="10.00" fill="#000000">EFB</text>
<text text-anchor="middle" x="461" y="-658" font-family="Arial-Bold" font-size="10.00" fill="#000000">(Empty Fruit Bunches)</text>
</g>
<!-- mill&#45;&gt;efb -->
<g id="edge3" class="edge">
<title>mill&#45;&gt;efb</title>
<path fill="none" stroke="#555555" d="M420.14,-775.8C427.44,-765.57 436.19,-752.07 442,-739 448.01,-725.47 452.48,-709.62 455.56,-696.34"/>
<polygon fill="#555555" stroke="#555555" points="458.91,-697.44 457.6,-686.92 452.07,-695.95 458.91,-697.44"/>
</g>
<!-- boiler -->
<g id="node4" class="node">
<title>boiler</title>
<polygon fill="#f9f9f9" stroke="#777777" points="257.2,-631 98.8,-631 98.8,-595 257.2,-595 257.2,-631"/>
<text text-anchor="middle" x="178" y="-616" font-family="Arial-Bold" font-size="10.00" fill="#000000">COMBUSTION</text>
<text text-anchor="middle" x="178" y="-604" font-family="Arial-Bold" font-size="10.00" fill="#000000">BOILER</text>
</g>
<!-- fiber&#45;&gt;boiler -->
<g id="edge5" class="edge">
<title>fiber&#45;&gt;boiler</title>
<path fill="none" stroke="#555555" d="M178,-702.97C178,-686.76 178,-662.06 178,-642.79"/>
<polygon fill="#555555" stroke="#555555" points="181.5,-642.85 178,-632.85 174.5,-642.85 181.5,-642.85"/>
<text text-anchor="middle" x="199.26" y="-664.3" font-family="Arial" font-size="9.00"> Fuel Input</text>
</g>
<!-- shell&#45;&gt;boiler -->
<g id="edge6" class="edge">
<title>shell&#45;&gt;boiler</title>
<path fill="none" stroke="#555555" d="M325.33,-702.73C295.76,-684.92 249.46,-657.04 216.66,-637.28"/>
<polygon fill="#555555" stroke="#555555" points="218.62,-634.38 208.25,-632.22 215.01,-640.37 218.62,-634.38"/>
<text text-anchor="middle" x="314.26" y="-664.3" font-family="Arial" font-size="9.00"> Fuel Input</text>
</g>
<!-- turbine -->
<g id="node5" class="node">
<title>turbine</title>
<polygon fill="#008300" stroke="#008300" points="257.2,-548.2 98.8,-548.2 98.8,-512.2 257.2,-512.2 257.2,-548.2"/>
<text text-anchor="middle" x="178" y="-533.2" font-family="Arial-Bold" font-size="10.00" fill="white">BACK&#45;PRESSURE</text>
<text text-anchor="middle" x="178" y="-521.2" font-family="Arial-Bold" font-size="10.00" fill="white">STEAM TURBINE</text>
</g>
<!-- boiler&#45;&gt;turbine -->
<g id="edge7" class="edge">
<title>boiler&#45;&gt;turbine</title>
<path fill="none" stroke="#2a78d6" d="M178,-594.86C178,-584.76 178,-571.7 178,-560.05"/>
<polygon fill="#2a78d6" stroke="#2a78d6" points="181.5,-560.1 178,-550.1 174.5,-560.1 181.5,-560.1"/>
<text text-anchor="middle" x="222.27" y="-568.9" font-family="Arial" font-size="9.00"> High&#45;Pressure Steam</text>
</g>
<!-- header -->
<g id="node6" class="node">
<title>header</title>
<polygon fill="#dae8fc" stroke="#2a78d6" points="420.2,-440.2 261.8,-440.2 261.8,-404.2 420.2,-404.2 420.2,-440.2"/>
<text text-anchor="middle" x="341" y="-425.2" font-family="Arial-Bold" font-size="10.00" fill="#000000">STEAM DISTRIBUTION</text>
<text text-anchor="middle" x="341" y="-413.2" font-family="Arial-Bold" font-size="10.00" fill="#000000">TANK / HEADER</text>
</g>
<!-- turbine&#45;&gt;header -->
<g id="edge9" class="edge">
<title>turbine&#45;&gt;header</title>
<path fill="none" stroke="#2a78d6" d="M204.55,-511.93C231.82,-494.2 274.45,-466.48 304.8,-446.74"/>
<polygon fill="#2a78d6" stroke="#2a78d6" points="306.44,-449.85 312.92,-441.46 302.63,-443.98 306.44,-449.85"/>
<text text-anchor="middle" x="315.77" y="-473.5" font-family="Arial" font-size="9.00"> Exhaust Steam</text>
</g>
<!-- elec1 -->
<g id="node10" class="node">
<title>elec1</title>
<polygon fill="#008300" stroke="#008300" points="244.2,-440.2 85.8,-440.2 85.8,-404.2 244.2,-404.2 244.2,-440.2"/>
<text text-anchor="middle" x="165" y="-425.2" font-family="Arial-Bold" font-size="10.00" fill="white">ELECTRICITY</text>
<text text-anchor="middle" x="165" y="-413.2" font-family="Arial-Bold" font-size="10.00" fill="white">GENERATION (BPT)</text>
</g>
<!-- turbine&#45;&gt;elec1 -->
<g id="edge8" class="edge">
<title>turbine&#45;&gt;elec1</title>
<path fill="none" stroke="#555555" d="M175.91,-512.17C173.91,-495.89 170.87,-471.02 168.5,-451.72"/>
<polygon fill="#555555" stroke="#555555" points="172,-451.54 167.31,-442.04 165.05,-452.39 172,-451.54"/>
</g>
<!-- process -->
<g id="node7" class="node">
<title>process</title>
<polygon fill="#f9f9f9" stroke="#777777" points="186.2,-357.4 27.8,-357.4 27.8,-321.4 186.2,-321.4 186.2,-357.4"/>
<text text-anchor="middle" x="107" y="-342.4" font-family="Arial-Bold" font-size="10.00" fill="#000000">INDUSTRIAL PROCESS</text>
<text text-anchor="middle" x="107" y="-330.4" font-family="Arial-Bold" font-size="10.00" fill="#000000">(Thermal Demand)</text>
</g>
<!-- header&#45;&gt;process -->
<g id="edge10" class="edge">
<title>header&#45;&gt;process</title>
<path fill="none" stroke="#2a78d6" d="M261.44,-405.23C240.35,-400.08 217.81,-393.71 197.48,-386.2 180.41,-379.89 162.37,-371.21 146.93,-363.1"/>
<polygon fill="#2a78d6" stroke="#2a78d6" points="149,-360.24 138.53,-358.6 145.7,-366.41 149,-360.24"/>
<text text-anchor="middle" x="229.76" y="-378.1" font-family="Arial" font-size="9.00"> Process Steam</text>
</g>
<!-- condenser -->
<g id="node8" class="node">
<title>condenser</title>
<polygon fill="#f9f9f9" stroke="#777777" points="362.2,-357.4 203.8,-357.4 203.8,-321.4 362.2,-321.4 362.2,-357.4"/>
<text text-anchor="middle" x="283" y="-342.4" font-family="Arial-Bold" font-size="10.00" fill="#000000">CONDENSATION</text>
<text text-anchor="middle" x="283" y="-330.4" font-family="Arial-Bold" font-size="10.00" fill="#000000">SYSTEM</text>
</g>
<!-- header&#45;&gt;condenser -->
<g id="edge12" class="edge">
<title>header&#45;&gt;condenser</title>
<path fill="none" stroke="#2a78d6" d="M285.29,-403.74C278.02,-399.16 271.53,-393.41 266.97,-386.2 263.44,-380.64 263.56,-374.2 265.44,-367.95"/>
<polygon fill="#2a78d6" stroke="#2a78d6" points="268.48,-369.72 269.29,-359.16 262.07,-366.91 268.48,-369.72"/>
<text text-anchor="middle" x="304.02" y="-378.1" font-family="Arial" font-size="9.00"> Remaining Steam</text>
</g>
<!-- thermal -->
<g id="node15" class="node">
<title>thermal</title>
<polygon fill="#fff2cc" stroke="#d6b656" points="540.2,-357.4 381.8,-357.4 381.8,-321.4 540.2,-321.4 540.2,-357.4"/>
<text text-anchor="middle" x="461" y="-342.4" font-family="Arial-Bold" font-size="10.00" fill="#000000">THERMAL</text>
<text text-anchor="middle" x="461" y="-330.4" font-family="Arial-Bold" font-size="10.00" fill="#000000">PRETREATMENT</text>
</g>
<!-- header&#45;&gt;thermal -->
<g id="edge11" class="edge">
<title>header&#45;&gt;thermal</title>
<path fill="none" stroke="#cc0000" stroke-dasharray="5,2" d="M346.1,-403.97C349.71,-394.41 355.45,-382.96 363.97,-375.4 369.28,-370.68 375.28,-366.58 381.63,-363.03"/>
<polygon fill="#cc0000" stroke="#cc0000" points="383.14,-366.19 390.49,-358.56 379.98,-359.94 383.14,-366.19"/>
<text text-anchor="middle" x="405.52" y="-378.1" font-family="Arial" font-size="9.00"> Pretreatment Steam</text>
</g>
<!-- makeup -->
<g id="node9" class="node">
<title>makeup</title>
<polygon fill="#f9f9f9" stroke="#777777" points="360.2,-274.6 201.8,-274.6 201.8,-238.6 360.2,-238.6 360.2,-274.6"/>
<text text-anchor="middle" x="281" y="-259.6" font-family="Arial-Bold" font-size="10.00" fill="#000000">MAKE&#45;UP WATER</text>
<text text-anchor="middle" x="281" y="-247.6" font-family="Arial-Bold" font-size="10.00" fill="#000000">TREATMENT</text>
</g>
<!-- condenser&#45;&gt;makeup -->
<g id="edge13" class="edge">
<title>condenser&#45;&gt;makeup</title>
<path fill="none" stroke="#2a78d6" d="M282.58,-321.26C282.33,-311.16 282,-298.1 281.71,-286.45"/>
<polygon fill="#2a78d6" stroke="#2a78d6" points="285.21,-286.41 281.47,-276.5 278.22,-286.59 285.21,-286.41"/>
<text text-anchor="middle" x="323.28" y="-295.3" font-family="Arial" font-size="9.00"> Condensate Return</text>
</g>
<!-- makeup&#45;&gt;boiler -->
<g id="edge14" class="edge">
<title>makeup&#45;&gt;boiler</title>
<path fill="none" stroke="#2a78d6" d="M201.6,-264.87C118.51,-274.74 0,-296.2 0,-338.4 0,-531.2 0,-531.2 0,-531.2 0,-574.06 43.32,-594.3 87.22,-603.8"/>
<polygon fill="#2a78d6" stroke="#2a78d6" points="86.4,-607.21 96.89,-605.7 87.75,-600.34 86.4,-607.21"/>
<text text-anchor="middle" x="33.77" y="-419.5" font-family="Arial" font-size="9.00"> Feedwater Input</text>
</g>
<!-- desand -->
<g id="node13" class="node">
<title>desand</title>
<polygon fill="#f9f9f9" stroke="#777777" points="647.2,-631 488.8,-631 488.8,-595 647.2,-595 647.2,-631"/>
<text text-anchor="middle" x="568" y="-616" font-family="Arial-Bold" font-size="10.00" fill="#000000">DESANDING &amp;</text>
<text text-anchor="middle" x="568" y="-604" font-family="Arial-Bold" font-size="10.00" fill="#000000">OIL REMOVAL</text>
</g>
<!-- pome&#45;&gt;desand -->
<g id="edge15" class="edge">
<title>pome&#45;&gt;desand</title>
<path fill="none" stroke="#555555" d="M568,-702.97C568,-686.76 568,-662.06 568,-642.79"/>
<polygon fill="#555555" stroke="#555555" points="571.5,-642.85 568,-632.85 564.5,-642.85 571.5,-642.85"/>
</g>
<!-- efb&#45;&gt;thermal -->
<g id="edge18" class="edge">
<title>efb&#45;&gt;thermal</title>
<path fill="none" stroke="#555555" d="M461,-648.79C461,-630.05 461,-599.19 461,-572.6 461,-572.6 461,-572.6 461,-421.2 461,-403.93 461,-384.59 461,-369.16"/>
<polygon fill="#555555" stroke="#555555" points="464.5,-369.25 461,-359.25 457.5,-369.25 464.5,-369.25"/>
</g>
<!-- stab -->
<g id="node14" class="node">
<title>stab</title>
<polygon fill="#f9f9f9" stroke="#777777" points="647.2,-494.2 488.8,-494.2 488.8,-458.2 647.2,-458.2 647.2,-494.2"/>
<text text-anchor="middle" x="568" y="-473.2" font-family="Arial-Bold" font-size="10.00" fill="#000000">STABILIZATION POND</text>
</g>
<!-- desand&#45;&gt;stab -->
<g id="edge16" class="edge">
<title>desand&#45;&gt;stab</title>
<path fill="none" stroke="#555555" d="M568,-594.65C568,-572.21 568,-532.8 568,-505.87"/>
<polygon fill="#555555" stroke="#555555" points="571.5,-505.99 568,-495.99 564.5,-505.99 571.5,-505.99"/>
</g>
<!-- digester -->
<g id="node16" class="node">
<title>digester</title>
<polygon fill="#008300" stroke="#008300" points="545.2,-274.6 386.8,-274.6 386.8,-238.6 545.2,-238.6 545.2,-274.6"/>
<text text-anchor="middle" x="466" y="-259.6" font-family="Arial-Bold" font-size="10.00" fill="white">CO&#45;DIGESTION</text>
<text text-anchor="middle" x="466" y="-247.6" font-family="Arial-Bold" font-size="10.00" fill="white">ANAEROBIC DIGESTER</text>
</g>
<!-- stab&#45;&gt;digester -->
<g id="edge17" class="edge">
<title>stab&#45;&gt;digester</title>
<path fill="none" stroke="#555555" d="M570.84,-457.82C575.62,-422.05 581.01,-339.64 539,-292.6 535.12,-288.26 530.58,-284.4 525.71,-280.99"/>
<polygon fill="#555555" stroke="#555555" points="527.62,-278.06 517.27,-275.77 523.93,-284.01 527.62,-278.06"/>
<text text-anchor="middle" x="602.01" y="-378.1" font-family="Arial" font-size="9.00"> Liquid Stream</text>
</g>
<!-- thermal&#45;&gt;digester -->
<g id="edge19" class="edge">
<title>thermal&#45;&gt;digester</title>
<path fill="none" stroke="#555555" d="M462.06,-321.26C462.69,-311.16 463.49,-298.1 464.21,-286.45"/>
<polygon fill="#555555" stroke="#555555" points="467.71,-286.7 464.83,-276.5 460.72,-286.26 467.71,-286.7"/>
<text text-anchor="middle" x="498.77" y="-295.3" font-family="Arial" font-size="9.00"> Pretreated Solids</text>
</g>
<!-- clean -->
<g id="node17" class="node">
<title>clean</title>
<polygon fill="#f9f9f9" stroke="#777777" points="448.2,-191.8 289.8,-191.8 289.8,-155.8 448.2,-155.8 448.2,-191.8"/>
<text text-anchor="middle" x="369" y="-176.8" font-family="Arial-Bold" font-size="10.00" fill="#000000">BIOGAS CLEANING</text>
<text text-anchor="middle" x="369" y="-164.8" font-family="Arial-Bold" font-size="10.00" fill="#000000">SYSTEM</text>
</g>
<!-- digester&#45;&gt;clean -->
<g id="edge20" class="edge">
<title>digester&#45;&gt;clean</title>
<path fill="none" stroke="#555555" d="M442.58,-238.11C435.39,-232.61 427.52,-226.45 420.45,-220.6 412.42,-213.95 403.89,-206.52 396.13,-199.61"/>
<polygon fill="#555555" stroke="#555555" points="398.68,-197.19 388.9,-193.11 394,-202.4 398.68,-197.19"/>
<text text-anchor="middle" x="457.77" y="-212.5" font-family="Arial" font-size="9.00"> Biogas Production</text>
</g>
<!-- fac_pond -->
<g id="node20" class="node">
<title>fac_pond</title>
<polygon fill="#f9f9f9" stroke="#777777" points="624.2,-191.8 465.8,-191.8 465.8,-155.8 624.2,-155.8 624.2,-191.8"/>
<text text-anchor="middle" x="545" y="-170.8" font-family="Arial-Bold" font-size="10.00" fill="#000000">FACULTATIVE POND</text>
</g>
<!-- digester&#45;&gt;fac_pond -->
<g id="edge23" class="edge">
<title>digester&#45;&gt;fac_pond</title>
<path fill="none" stroke="#555555" d="M482.75,-238.46C493.57,-227.4 507.85,-212.8 520,-200.37"/>
<polygon fill="#555555" stroke="#555555" points="522.45,-202.87 526.94,-193.27 517.45,-197.98 522.45,-202.87"/>
<text text-anchor="middle" x="530.26" y="-212.5" font-family="Arial" font-size="9.00"> Digestate</text>
</g>
<!-- engine -->
<g id="node18" class="node">
<title>engine</title>
<polygon fill="#f9f9f9" stroke="#777777" points="448.2,-109 289.8,-109 289.8,-73 448.2,-73 448.2,-109"/>
<text text-anchor="middle" x="369" y="-94" font-family="Arial-Bold" font-size="10.00" fill="#000000">BIOGAS ENGINE</text>
<text text-anchor="middle" x="369" y="-82" font-family="Arial-Bold" font-size="10.00" fill="#000000">GENERATOR</text>
</g>
<!-- clean&#45;&gt;engine -->
<g id="edge21" class="edge">
<title>clean&#45;&gt;engine</title>
<path fill="none" stroke="#555555" d="M369,-155.66C369,-145.56 369,-132.5 369,-120.85"/>
<polygon fill="#555555" stroke="#555555" points="372.5,-120.9 369,-110.9 365.5,-120.9 372.5,-120.9"/>
</g>
<!-- elec2 -->
<g id="node19" class="node">
<title>elec2</title>
<polygon fill="#008300" stroke="#008300" points="448.2,-36 289.8,-36 289.8,0 448.2,0 448.2,-36"/>
<text text-anchor="middle" x="369" y="-21" font-family="Arial-Bold" font-size="10.00" fill="white">ELECTRICITY</text>
<text text-anchor="middle" x="369" y="-9" font-family="Arial-Bold" font-size="10.00" fill="white">GENERATION (Biogas)</text>
</g>
<!-- engine&#45;&gt;elec2 -->
<g id="edge22" class="edge">
<title>engine&#45;&gt;elec2</title>
<path fill="none" stroke="#555555" d="M369,-72.81C369,-65.23 369,-56.1 369,-47.54"/>
<polygon fill="#555555" stroke="#555555" points="372.5,-47.54 369,-37.54 365.5,-47.54 372.5,-47.54"/>
</g>
<!-- solids -->
<g id="node21" class="node">
<title>solids</title>
<polygon fill="#f9f9f9" stroke="#777777" points="800.2,-109 641.8,-109 641.8,-73 800.2,-73 800.2,-109"/>
<text text-anchor="middle" x="721" y="-94" font-family="Arial-Bold" font-size="10.00" fill="#000000">SOLID</text>
<text text-anchor="middle" x="721" y="-82" font-family="Arial-Bold" font-size="10.00" fill="#000000">REMOVAL</text>
</g>
<!-- fac_pond&#45;&gt;solids -->
<g id="edge24" class="edge">
<title>fac_pond&#45;&gt;solids</title>
<path fill="none" stroke="#555555" d="M582.76,-155.47C609.11,-143.37 644.52,-127.11 672.89,-114.08"/>
<polygon fill="#555555" stroke="#555555" points="674,-117.43 681.63,-110.08 671.08,-111.07 674,-117.43"/>
<text text-anchor="middle" x="656.51" y="-129.7" font-family="Arial" font-size="9.00"> Solids</text>
</g>
<!-- liquids -->
<g id="node22" class="node">
<title>liquids</title>
<polygon fill="#f9f9f9" stroke="#777777" points="624.2,-109 465.8,-109 465.8,-73 624.2,-73 624.2,-109"/>
<text text-anchor="middle" x="545" y="-94" font-family="Arial-Bold" font-size="10.00" fill="#000000">LIQUID DISCHARGE</text>
<text text-anchor="middle" x="545" y="-82" font-family="Arial-Bold" font-size="10.00" fill="#000000">TO WATER BODIES</text>
</g>
<!-- fac_pond&#45;&gt;liquids -->
<g id="edge25" class="edge">
<title>fac_pond&#45;&gt;liquids</title>
<path fill="none" stroke="#555555" d="M545,-155.66C545,-145.56 545,-132.5 545,-120.85"/>
<polygon fill="#555555" stroke="#555555" points="548.5,-120.9 545,-110.9 541.5,-120.9 548.5,-120.9"/>
<text text-anchor="middle" x="560.51" y="-129.7" font-family="Arial" font-size="9.00"> Liquids</text>
</g>
</g>
</svg>
